<mxfile host="app.diagrams.net" modified="2023-05-30T09:41:31.689Z" agent="Mozilla/5.0 (Windows NT 10.0; Win64; x64) AppleWebKit/537.36 (KHTML, like Gecko) Chrome/109.0.0.0 Safari/537.36" etag="K2zXiwPJ5lXgIlfsZQzK" version="21.3.5" type="device">
  <diagram id="y_r9Ihpp6yIocpp6DrJK" name="Page-1">
    <mxGraphModel dx="1032" dy="458" grid="1" gridSize="10" guides="1" tooltips="1" connect="1" arrows="1" fold="1" page="1" pageScale="1" pageWidth="850" pageHeight="1100" background="#ffffff" math="0" shadow="0">
      <root>
        <mxCell id="0" />
        <mxCell id="1" parent="0" />
        <mxCell id="2" value="DrinkFactory" style="swimlane;fontStyle=3;align=center;verticalAlign=top;childLayout=stackLayout;horizontal=1;startSize=26;horizontalStack=0;resizeParent=1;resizeParentMax=0;resizeLast=0;collapsible=1;marginBottom=0;strokeColor=#000000;strokeWidth=2;fillColor=#FFFFFF;fontColor=#000000;" parent="1" vertex="1">
          <mxGeometry x="230" y="220" width="240" height="60" as="geometry" />
        </mxCell>
        <mxCell id="3" value="" style="line;strokeWidth=2;align=left;verticalAlign=middle;spacingTop=-1;spacingLeft=3;spacingRight=3;rotatable=0;labelPosition=right;points=[];portConstraint=eastwest;fillColor=#FFFFFF;fontColor=#000000;strokeColor=#000000;" parent="2" vertex="1">
          <mxGeometry y="26" width="240" height="8" as="geometry" />
        </mxCell>
        <mxCell id="27" value="+ prepare(): int" style="text;align=left;verticalAlign=top;spacingLeft=4;spacingRight=4;overflow=hidden;rotatable=0;points=[[0,0.5],[1,0.5]];portConstraint=eastwest;fillColor=#FFFFFF;strokeColor=#000000;strokeWidth=2;fontColor=#000000;" parent="2" vertex="1">
          <mxGeometry y="34" width="240" height="26" as="geometry" />
        </mxCell>
        <mxCell id="7" value="return" style="html=1;verticalAlign=bottom;endArrow=open;dashed=1;endSize=9;targetPerimeterSpacing=2;strokeWidth=2;strokeColor=#000000;fontColor=#000000;labelBackgroundColor=none;fontSize=14;exitX=0;exitY=0.5;exitDx=0;exitDy=0;entryX=0.5;entryY=1;entryDx=0;entryDy=0;" parent="1" source="30" target="35" edge="1">
          <mxGeometry x="-0.0955" relative="1" as="geometry">
            <mxPoint x="170" y="590" as="sourcePoint" />
            <mxPoint x="90" y="600" as="targetPoint" />
            <Array as="points">
              <mxPoint x="110" y="455" />
            </Array>
            <mxPoint as="offset" />
          </mxGeometry>
        </mxCell>
        <mxCell id="21" value="Extends" style="endArrow=block;endSize=16;endFill=0;html=1;labelBackgroundColor=none;strokeColor=#000000;strokeWidth=2;fontColor=#000000;exitX=0.5;exitY=0;exitDx=0;exitDy=0;fontSize=14;entryX=0.5;entryY=0;entryDx=0;entryDy=0;" parent="1" source="19" target="2" edge="1">
          <mxGeometry x="0.397" y="40" width="160" relative="1" as="geometry">
            <mxPoint x="230.00000000000006" y="424.02199999999993" as="sourcePoint" />
            <mxPoint x="320" y="170" as="targetPoint" />
            <mxPoint as="offset" />
          </mxGeometry>
        </mxCell>
        <mxCell id="22" value="Extends" style="endArrow=block;endSize=16;endFill=0;html=1;labelBackgroundColor=none;strokeColor=#000000;strokeWidth=2;fontColor=#000000;exitX=0.579;exitY=0;exitDx=0;exitDy=0;exitPerimeter=0;fontSize=14;entryX=0.5;entryY=1;entryDx=0;entryDy=0;" parent="1" source="25" target="2" edge="1">
          <mxGeometry x="-0.2796" y="-39" width="160" relative="1" as="geometry">
            <mxPoint x="578.96" y="418.02199999999993" as="sourcePoint" />
            <mxPoint x="340" y="330" as="targetPoint" />
            <mxPoint as="offset" />
          </mxGeometry>
        </mxCell>
        <mxCell id="32" value="return" style="html=1;verticalAlign=bottom;endArrow=open;dashed=1;endSize=9;targetPerimeterSpacing=2;strokeWidth=2;strokeColor=#000000;fontColor=#000000;labelBackgroundColor=none;fontSize=14;entryX=0.563;entryY=0;entryDx=0;entryDy=0;entryPerimeter=0;" parent="1" target="40" edge="1">
          <mxGeometry relative="1" as="geometry">
            <mxPoint x="270" y="80" as="sourcePoint" />
            <mxPoint x="50" as="targetPoint" />
            <Array as="points">
              <mxPoint x="100" y="80" />
            </Array>
          </mxGeometry>
        </mxCell>
        <mxCell id="44" value="Extends" style="endArrow=block;endSize=16;endFill=0;html=1;labelBackgroundColor=none;strokeColor=#000000;strokeWidth=2;fontColor=#000000;entryX=0.5;entryY=0;entryDx=0;entryDy=0;exitX=0.556;exitY=-0.023;exitDx=0;exitDy=0;exitPerimeter=0;fontSize=14;" parent="1" source="40" target="33" edge="1">
          <mxGeometry x="0.5114" y="40" width="160" relative="1" as="geometry">
            <mxPoint x="770" y="645" as="sourcePoint" />
            <mxPoint x="930" y="645" as="targetPoint" />
            <mxPoint as="offset" />
          </mxGeometry>
        </mxCell>
        <mxCell id="45" value="Extends" style="endArrow=block;endSize=16;endFill=0;html=1;labelBackgroundColor=none;strokeColor=#000000;strokeWidth=2;fontColor=#000000;exitX=0.5;exitY=0;exitDx=0;exitDy=0;fontSize=14;" parent="1" source="35" edge="1">
          <mxGeometry x="-0.2" y="-40" width="160" relative="1" as="geometry">
            <mxPoint x="998.96" y="703.0219999999999" as="sourcePoint" />
            <mxPoint x="110" y="285" as="targetPoint" />
            <mxPoint as="offset" />
          </mxGeometry>
        </mxCell>
        <mxCell id="33" value="Drink" style="swimlane;fontStyle=3;childLayout=stackLayout;horizontal=1;startSize=26;horizontalStack=0;resizeParent=1;resizeParentMax=0;resizeLast=0;collapsible=1;marginBottom=0;strokeColor=#000000;strokeWidth=2;fontColor=#000000;fillColor=#FFFFFF;" parent="1" vertex="1">
          <mxGeometry x="30" y="230" width="140" height="52" as="geometry" />
        </mxCell>
        <mxCell id="34" value="+ drink() " style="text;align=left;verticalAlign=top;spacingLeft=4;spacingRight=4;overflow=hidden;rotatable=0;points=[[0,0.5],[1,0.5]];portConstraint=eastwest;fontColor=#000000;fillColor=#FFFFFF;strokeColor=#000000;strokeWidth=2;" parent="33" vertex="1">
          <mxGeometry y="26" width="140" height="26" as="geometry" />
        </mxCell>
        <mxCell id="40" value="Tea" style="swimlane;fontStyle=1;align=center;verticalAlign=top;childLayout=stackLayout;horizontal=1;startSize=26;horizontalStack=0;resizeParent=1;resizeParentMax=0;resizeLast=0;collapsible=1;marginBottom=0;fillColor=#FFFFFF;fontColor=#000000;strokeColor=#000000;strokeWidth=2;" parent="1" vertex="1">
          <mxGeometry x="10" y="110" width="160" height="60" as="geometry">
            <mxRectangle x="10" y="110" width="60" height="30" as="alternateBounds" />
          </mxGeometry>
        </mxCell>
        <mxCell id="41" value="+ drink()" style="text;align=left;verticalAlign=top;spacingLeft=4;spacingRight=4;overflow=hidden;rotatable=0;points=[[0,0.5],[1,0.5]];portConstraint=eastwest;fontColor=#000000;fillColor=#FFFFFF;strokeColor=#000000;strokeWidth=2;" parent="40" vertex="1">
          <mxGeometry y="26" width="160" height="26" as="geometry" />
        </mxCell>
        <mxCell id="42" value="" style="line;strokeWidth=2;align=left;verticalAlign=middle;spacingTop=-1;spacingLeft=3;spacingRight=3;rotatable=0;labelPosition=right;points=[];portConstraint=eastwest;fillColor=#FFFFFF;fontColor=#000000;strokeColor=#000000;" parent="40" vertex="1">
          <mxGeometry y="52" width="160" height="8" as="geometry" />
        </mxCell>
        <mxCell id="35" value="Coffee" style="swimlane;fontStyle=1;align=center;verticalAlign=top;childLayout=stackLayout;horizontal=1;startSize=26;horizontalStack=0;resizeParent=1;resizeParentMax=0;resizeLast=0;collapsible=1;marginBottom=0;fillColor=#FFFFFF;fontColor=#000000;strokeColor=#000000;strokeWidth=2;" parent="1" vertex="1">
          <mxGeometry x="30" y="360" width="160" height="60" as="geometry" />
        </mxCell>
        <mxCell id="38" value="" style="line;strokeWidth=2;align=left;verticalAlign=middle;spacingTop=-1;spacingLeft=3;spacingRight=3;rotatable=0;labelPosition=right;points=[];portConstraint=eastwest;fillColor=#FFFFFF;fontColor=#000000;strokeColor=#000000;" parent="35" vertex="1">
          <mxGeometry y="26" width="160" height="8" as="geometry" />
        </mxCell>
        <mxCell id="39" value="+ drink()" style="text;align=left;verticalAlign=top;spacingLeft=4;spacingRight=4;overflow=hidden;rotatable=0;points=[[0,0.5],[1,0.5]];portConstraint=eastwest;fillColor=#FFFFFF;fontColor=#000000;strokeColor=#000000;strokeWidth=2;" parent="35" vertex="1">
          <mxGeometry y="34" width="160" height="26" as="geometry" />
        </mxCell>
        <mxCell id="25" value="CoffeeFactory" style="swimlane;fontStyle=1;childLayout=stackLayout;horizontal=1;startSize=52;horizontalStack=0;resizeParent=1;resizeParentMax=0;resizeLast=0;collapsible=1;marginBottom=0;strokeColor=#000000;strokeWidth=2;fontColor=#000000;fillColor=#FFFFFF;" parent="1" vertex="1">
          <mxGeometry x="270" y="390" width="140" height="78" as="geometry" />
        </mxCell>
        <mxCell id="30" value="+ prepare(): int " style="text;align=left;verticalAlign=top;spacingLeft=4;spacingRight=4;overflow=hidden;rotatable=0;points=[[0,0.5],[1,0.5]];portConstraint=eastwest;fillColor=#FFFFFF;strokeColor=#000000;strokeWidth=2;fontColor=#000000;" parent="25" vertex="1">
          <mxGeometry y="52" width="140" height="26" as="geometry" />
        </mxCell>
        <mxCell id="19" value="TeaFactory" style="swimlane;fontStyle=1;childLayout=stackLayout;horizontal=1;startSize=52;horizontalStack=0;resizeParent=1;resizeParentMax=0;resizeLast=0;collapsible=1;marginBottom=0;strokeColor=#000000;strokeWidth=2;fontColor=#000000;fillColor=#FFFFFF;" parent="1" vertex="1">
          <mxGeometry x="280" y="21" width="140" height="78" as="geometry" />
        </mxCell>
        <mxCell id="28" value="+ prepare(): int " style="text;align=left;verticalAlign=top;spacingLeft=4;spacingRight=4;overflow=hidden;rotatable=0;points=[[0,0.5],[1,0.5]];portConstraint=eastwest;fillColor=#FFFFFF;fontColor=#000000;strokeColor=#000000;strokeWidth=2;" parent="19" vertex="1">
          <mxGeometry y="52" width="140" height="26" as="geometry" />
        </mxCell>
      </root>
    </mxGraphModel>
  </diagram>
</mxfile>
